<svg width="17" height="18" viewBox="0 0 17 18" fill="none" xmlns="http://www.w3.org/2000/svg">
<path fill-rule="evenodd" clip-rule="evenodd" d="M11.9974 17H5.04914C2.49689 17 0.538888 16.0782 1.09505 12.3678L1.74264 7.33954C2.08548 5.48819 3.26638 4.77966 4.30252 4.77966H12.7745C13.8259 4.77966 14.9382 5.54153 15.3344 7.33954L15.9819 12.3678C16.4543 15.6592 14.5497 17 11.9974 17Z" stroke="white" stroke-width="1.5" stroke-linecap="round" stroke-linejoin="round"/>
<path d="M12.1117 4.59605C12.1117 2.61003 10.5017 1.00003 8.51569 1.00003C7.55933 0.995987 6.64075 1.37306 5.96307 2.04788C5.2854 2.7227 4.90443 3.63968 4.90444 4.59605" stroke="white" stroke-width="1.5" stroke-linecap="round" stroke-linejoin="round"/>
<path d="M10.9841 8.34476H10.946" stroke="white" stroke-width="1.5" stroke-linecap="round" stroke-linejoin="round"/>
<path d="M6.1311 8.34476H6.09301" stroke="white" stroke-width="1.5" stroke-linecap="round" stroke-linejoin="round"/>
</svg>
