<svg width="30" height="30" viewBox="0 0 30 30" fill="none" xmlns="http://www.w3.org/2000/svg">
<circle cx="15" cy="15" r="15" fill="white"/>
<path fill-rule="evenodd" clip-rule="evenodd" d="M17.9354 20.9995H12.2899C10.2162 20.9995 8.62535 20.2505 9.07723 17.2359L9.60339 13.1504C9.88195 11.6461 10.8414 11.0705 11.6833 11.0705H18.5668C19.421 11.0705 20.3248 11.6895 20.6467 13.1504L21.1728 17.2359C21.5566 19.9101 20.0091 20.9995 17.9354 20.9995Z" stroke="black" stroke-linecap="round" stroke-linejoin="round"/>
<path d="M18.0283 10.9218C18.0283 9.30815 16.7201 8.00003 15.1065 8.00003C14.3294 7.99674 13.5831 8.30311 13.0325 8.8514C12.4819 9.3997 12.1723 10.1447 12.1723 10.9218" stroke="black" stroke-linecap="round" stroke-linejoin="round"/>
<path d="M17.112 13.9668H17.0811" stroke="black" stroke-linecap="round" stroke-linejoin="round"/>
<path d="M13.1691 13.9668H13.1381" stroke="black" stroke-linecap="round" stroke-linejoin="round"/>
</svg>
