<svg width="50" height="50" viewBox="0 0 50 50" fill="none" xmlns="http://www.w3.org/2000/svg">
<circle cx="25" cy="25" r="25" fill="black"/>
<path opacity="0.4" d="M23.275 28.6614H17.357C16.608 28.6614 16 29.2587 16 29.9945C16 30.7294 16.608 31.3277 17.357 31.3277H23.275C24.024 31.3277 24.632 30.7294 24.632 29.9945C24.632 29.2587 24.024 28.6614 23.275 28.6614Z" fill="white"/>
<path opacity="0.4" d="M34.0001 20.0408C34.0001 19.3059 33.392 18.7086 32.644 18.7086H26.7261C25.9771 18.7086 25.369 19.3059 25.369 20.0408C25.369 20.7767 25.9771 21.374 26.7261 21.374H32.644C33.392 21.374 34.0001 20.7767 34.0001 20.0408Z" fill="white"/>
<path d="M22.19 20.0407C22.19 21.7207 20.805 23.0824 19.095 23.0824C17.386 23.0824 16 21.7207 16 20.0407C16 18.3617 17.386 17 19.095 17C20.805 17 22.19 18.3617 22.19 20.0407Z" fill="white"/>
<path d="M34.0002 29.9593C34.0002 31.6383 32.6151 33 30.9051 33C29.1961 33 27.8101 31.6383 27.8101 29.9593C27.8101 28.2792 29.1961 26.9176 30.9051 26.9176C32.6151 26.9176 34.0002 28.2792 34.0002 29.9593Z" fill="white"/>
</svg>
